PathFileType	4	(X/Y/Z)	RBDS027static.trc
DataRate	CameraRate	NumFrames	NumMarkers	Units	OrigDataRate	OrigDataStartFrame	OrigNumFrames
150.000000	150.000000	4	48	mm	150.000000	131	150
Frame#	Time	L.Ankle			L.Ankle.Medial			L.ASIS			L.GTR			L.Heel.Bottom			L.Heel.Lateral			L.Heel.Top			L.HF			L.Iliac.Crest			L.Knee			L.Knee.Medial			L.MT1			L.MT2			L.MT5			L.PSIS			L.Shank.Bottom.Lateral			L.Shank.Bottom.Medial			L.Shank.Top.Lateral			L.Shank.Top.Medial			L.Thigh.Bottom.Lateral			L.Thigh.Bottom.Medial			L.Thigh.Top.Lateral			L.Thigh.Top.Medial			L.TT			R.Ankle			R.Ankle.Medial			R.ASIS			R.GTR			R.Heel.Bottom			R.Heel.Lateral			R.Heel.Top			R.HF			R.Iliac.Crest			R.Knee			R.Knee.Medial			R.MT1			R.MT2			R.MT5			R.PSIS			R.Shank.Bottom.Lateral			R.Shank.Bottom.Medial			R.Shank.Top.Lateral			R.Shank.Top.Medial			R.Thigh.Bottom.Lateral			R.Thigh.Bottom.Medial			R.Thigh.Top.Lateral			R.Thigh.Top.Medial			R.TT			
		X1	Y1	Z1	X2	Y2	Z2	X3	Y3	Z3	X4	Y4	Z4	X5	Y5	Z5	X6	Y6	Z6	X7	Y7	Z7	X8	Y8	Z8	X9	Y9	Z9	X10	Y10	Z10	X11	Y11	Z11	X12	Y12	Z12	X13	Y13	Z13	X14	Y14	Z14	X15	Y15	Z15	X16	Y16	Z16	X17	Y17	Z17	X18	Y18	Z18	X19	Y19	Z19	X20	Y20	Z20	X21	Y21	Z21	X22	Y22	Z22	X23	Y23	Z23	X24	Y24	Z24	X25	Y25	Z25	X26	Y26	Z26	X27	Y27	Z27	X28	Y28	Z28	X29	Y29	Z29	X30	Y30	Z30	X31	Y31	Z31	X32	Y32	Z32	X33	Y33	Z33	X34	Y34	Z34	X35	Y35	Z35	X36	Y36	Z36	X37	Y37	Z37	X38	Y38	Z38	X39	Y39	Z39	X40	Y40	Z40	X41	Y41	Z41	X42	Y42	Z42	X43	Y43	Z43	X44	Y44	Z44	X45	Y45	Z45	X46	Y46	Z46	X47	Y47	Z47	X48	Y48	Z48	

132	0.8733333333333334	711.0946044921875	96.03445434570313	1045.850830078125	728.4508056640625	100.9801712036133	1125.391235351563	810.2875366210938	920.8493041992188	1083.376708984375	741.1510009765625	835.0587158203125	1043.345581054688	637.1972045898438	33.15838241577148	1083.922241210938	669.287353515625	55.18658065795898	1040.892456054688	649.55859375	81.85643005371094	1086.396118164063	701.3906860351563	417.794921875	1035.890747070313	754.0065307617188	993.6900024414063	1060.237060546875	713.40087890625	475.0560302734375	1045.93798828125	705.2988891601563	462.6952514648438	1167.264038085938	853.0147705078125	52.70859527587891	1128.121459960938	860.7620239257813	65.22138214111328	1082.521118164063	821.7030639648438	48.44750213623047	1017.569702148438	657.0389404296875	953.2080688476563	1178.795532226563	695.25537109375	160.71533203125	1035.664306640625	660.08447265625	154.8893127441406	1078.4013671875	671.345458984375	237.2596740722656	1028.21484375	640.91357421875	233.3863372802734	1072.836791992188	703.421142578125	587.1801147460938	1027.085327148438	651.5999145507813	585.7326049804688	1076.608154296875	698.9136962890625	697.2579345703125	1029.610961914063	652.2963256835938	696.2744140625	1079.561279296875	760.3070678710938	396.9378662109375	1087.397094726563	708.973876953125	97.02334594726563	1405.265502929688	732.746826171875	111.0955963134766	1328.495239257813	828.5338134765625	928.7904052734375	1350.7451171875	760.115234375	842.1468505859375	1402.565673828125	640.0245971679688	37.59480667114258	1369.749145507813	672.686279296875	55.18127822875977	1410.888793945313	649.2066650390625	82.78431701660156	1369.702880859375	725.91064453125	427.7834167480469	1418.497436523438	773.73681640625	1006.182861328125	1372.750854492188	724.8017578125	488.4331665039063	1409.314331054688	719.921875	471.0850524902344	1289.695434570313	852.91796875	51.58903503417969	1316.751220703125	860.33349609375	67.6534423828125	1366.857055664063	826.2091064453125	47.53173446655273	1432.620971679688	666.5594482421875	955.3514404296875	1276.7587890625	696.6380615234375	159.8780364990234	1412.783203125	663.614501953125	166.0827789306641	1374.095581054688	687.4235229492188	242.7169342041016	1431.173950195313	652.7001953125	244.3042755126953	1390.048950195313	730.1497802734375	574.218017578125	1424.842895507813	670.3119506835938	574.9722900390625	1381.725830078125	726.3038330078125	683.9610595703125	1426.106567382813	670.4321899414063	685.0040893554688	1384.283569335938	778.3621215820313	407.7626953125	1366.798461914063	
133	0.88	711.09521484375	96.04385375976563	1045.8642578125	728.4437255859375	100.9745407104492	1125.397583007813	810.32958984375	920.8264770507813	1083.331420898438	741.2017211914063	835.0570068359375	1043.312377929688	637.201171875	33.16453552246094	1083.924072265625	669.2930297851563	55.19389343261719	1040.888061523438	649.5640258789063	81.86842346191406	1086.398071289063	701.36767578125	417.7913513183594	1035.872924804688	754.0484008789063	993.6828002929688	1060.194458007813	713.3795776367188	475.0432739257813	1045.925903320313	705.2883911132813	462.7121887207031	1167.254516601563	853.0203247070313	52.70899963378906	1128.119384765625	860.761962890625	65.21869659423828	1082.51708984375	821.7083129882813	48.44851684570313	1017.578918457031	657.1015625	953.2133178710938	1178.7529296875	695.2251586914063	160.7192840576172	1035.662963867188	660.0752563476563	154.9009704589844	1078.397094726563	671.3129272460938	237.2664642333984	1028.208251953125	640.9010009765625	233.3871459960938	1072.849975585938	703.4286499023438	587.1915283203125	1027.059692382813	651.5906372070313	585.7643432617188	1076.597534179688	698.9378051757813	697.2680053710938	1029.58642578125	652.3289794921875	696.2953491210938	1079.52783203125	760.2887573242188	396.9368896484375	1087.382446289063	708.9685668945313	97.02719116210938	1405.2607421875	732.73291015625	111.1047286987305	1328.474243164063	828.6080932617188	928.7760009765625	1350.689331054688	760.1839599609375	842.1522216796875	1402.523071289063	640.0177612304688	37.60885620117188	1369.738159179688	672.6884765625	55.18378067016602	1410.889282226563	649.1995239257813	82.79280090332031	1369.689453125	725.9293212890625	427.7825927734375	1418.483154296875	773.7927856445313	1006.165954589844	1372.715209960938	724.8256225585938	488.4447937011719	1409.306274414063	719.9404296875	471.0858154296875	1289.683349609375	852.9249877929688	51.59428024291992	1316.755249023438	860.3338623046875	67.64147186279297	1366.84423828125	826.2159423828125	47.53273010253906	1432.612182617188	666.6115112304688	955.355224609375	1276.70458984375	696.6371459960938	159.8827056884766	1412.78515625	663.6238403320313	166.0895843505859	1374.096801757813	687.4288330078125	242.7174530029297	1431.165161132813	652.710693359375	244.3135833740234	1390.046875	730.1925659179688	574.2236328125	1424.817749023438	670.34716796875	574.9749145507813	1381.704956054688	726.3489990234375	683.9672241210938	1426.072998046875	670.4762573242188	685.0213623046875	1384.265625	778.3782348632813	407.7484130859375	1366.783935546875	
134	0.8866666666666667	711.0867919921875	96.04719543457031	1045.863647460938	728.419189453125	100.9606857299805	1125.400512695313	810.3938598632813	920.8359375	1083.286865234375	741.2318725585938	835.05322265625	1043.283935546875	637.197509765625	33.16907119750977	1083.93212890625	669.2972412109375	55.19494247436523	1040.887939453125	649.56005859375	81.86721801757813	1086.402587890625	701.3412475585938	417.8136291503906	1035.891479492188	754.0835571289063	993.6768798828125	1060.158935546875	713.3543090820313	475.0384521484375	1045.919799804688	705.2906494140625	462.7145690917969	1167.24658203125	853.0230712890625	52.7149772644043	1128.11572265625	860.7625732421875	65.20877838134766	1082.513427734375	821.698974609375	48.44941329956055	1017.56689453125	657.1522216796875	953.2197265625	1178.713256835938	695.2031860351563	160.7236785888672	1035.652587890625	660.0601806640625	154.9076232910156	1078.39453125	671.2879638671875	237.2725067138672	1028.20458984375	640.894775390625	233.392333984375	1072.851806640625	703.4307861328125	587.1998901367188	1027.042602539063	651.59521484375	585.7786254882813	1076.573608398438	698.9563598632813	697.2615356445313	1029.555053710938	652.3558349609375	696.3164672851563	1079.523315429688	760.2886962890625	396.9561157226563	1087.352416992188	708.96240234375	97.03886413574219	1405.26513671875	732.7384033203125	111.1036529541016	1328.482666015625	828.673583984375	928.7734985351563	1350.654541015625	760.2542114257813	842.1405029296875	1402.483154296875	640.0167236328125	37.60779190063477	1369.7373046875	672.6786499023438	55.18434906005859	1410.88525390625	649.2066650390625	82.79264831542969	1369.69775390625	725.9427490234375	427.71337890625	1418.347412109375	773.8699951171875	1006.150451660156	1372.69873046875	724.841552734375	488.5110778808594	1409.40625	719.9629516601563	471.0720825195313	1289.66259765625	852.9149780273438	51.59184265136719	1316.750366210938	860.3369750976563	67.64523315429688	1366.852905273438	826.2092895507813	47.5399284362793	1432.611083984375	666.679443359375	955.3579711914063	1276.679931640625	696.6344604492188	159.8934783935547	1412.772827148438	663.6245727539063	166.09375	1374.086059570313	687.4295654296875	242.7358093261719	1431.154541015625	652.7185668945313	244.3212127685547	1390.035034179688	730.2135009765625	574.218505859375	1424.79052734375	670.3735961914063	574.9944458007813	1381.69384765625	726.3960571289063	683.9689331054688	1426.048095703125	670.5189819335938	685.0307006835938	1384.245361328125	778.3943481445313	407.76513671875	1366.746826171875	
135	0.8933333333333334	711.089599609375	96.04254150390625	1045.862670898438	728.4004516601563	100.9702072143555	1125.407104492188	810.45263671875	920.821533203125	1083.23681640625	741.27783203125	835.0555419921875	1043.255126953125	637.1963500976563	33.16814422607422	1083.929077148438	669.2935180664063	55.19353103637695	1040.890502929688	649.5689697265625	81.86953735351563	1086.40087890625	701.3179931640625	417.7940979003906	1035.867065429688	754.126708984375	993.6801147460938	1060.093872070313	713.3204956054688	475.0380249023438	1045.889038085938	705.2754516601563	462.71484375	1167.223510742188	853.02783203125	52.70895385742188	1128.106323242188	860.7586059570313	65.21736145019531	1082.50830078125	821.7050170898438	48.44952774047852	1017.553283691406	657.229736328125	953.2249145507813	1178.663208007813	695.1731567382813	160.7308654785156	1035.64697265625	660.0477905273438	154.9064178466797	1078.401489257813	671.27001953125	237.2692565917969	1028.204467773438	640.8728637695313	233.3984985351563	1072.858154296875	703.431640625	587.2081298828125	1027.019165039063	651.5845947265625	585.79931640625	1076.558837890625	698.9798583984375	697.2708740234375	1029.528564453125	652.3833618164063	696.3358154296875	1079.487426757813	760.2656860351563	396.94775390625	1087.335571289063	708.9734497070313	97.02689361572266	1405.257934570313	732.731689453125	111.1108779907227	1328.479736328125	828.7464599609375	928.7539672851563	1350.611328125	760.3170166015625	842.130859375	1402.43798828125	640.0256958007813	37.61156845092773	1369.73388671875	672.6805419921875	55.19814682006836	1410.890747070313	649.2027587890625	82.79019927978516	1369.701049804688	725.9595947265625	427.7130126953125	1418.33447265625	773.9303588867188	1006.134460449219	1372.66943359375	724.879150390625	488.4335632324219	1409.23828125	719.978759765625	471.0858459472656	1289.645263671875	852.9166870117188	51.59061050415039	1316.748168945313	860.3387451171875	67.64840698242188	1366.848510742188	826.21044921875	47.53500747680664	1432.607543945313	666.7488403320313	955.356689453125	1276.639038085938	696.6422729492188	159.8899230957031	1412.769165039063	663.62744140625	166.0921325683594	1374.081665039063	687.4368896484375	242.7319183349609	1431.140625	652.7203369140625	244.3376159667969	1390.024291992188	730.248046875	574.220947265625	1424.766723632813	670.4055786132813	574.997802734375	1381.66162109375	726.4419555664063	683.9749145507813	1426.015502929688	670.5653076171875	685.0344848632813	1384.211181640625	778.412109375	407.7608337402344	1366.724487304688	
